#!OML:ASF H:\Martial Arts Walks\Project 1\Capture day 1\Session 1\male.ASF
:FULLY-SPECIFIED
:DEGREES
1289
root -3.95815 13.5608 42.1656 6.91993 18.0349 9.86023
lowerback 10.7491 -0.0715367 -15.1969
upperback -1.11984 -2.15354 -0.929944
thorax -6.8053 -0.488841 7.90213
lowerneck 2.69871 -11.0875 -11.8554
upperneck 3.94804 -15.443 10.8287
head 2.49984 -7.77486 4.68842
rclavicle 1.8723e-014 -1.64991e-014
rhumerus -30.3424 13.8503 -67.903
rradius 43.1143
rwrist 9.53165
rhand -2.82092 -45.5445
rfingers 7.12502
rthumb 22.8858 -74.2064
lclavicle 1.8723e-014 -1.64991e-014
lhumerus -24.7771 -10.4442 85.4718
lradius 33.2028
lwrist -16.7139
lhand -20.4446 22.3253
lfingers 7.12502
lthumb 5.91063 52.2229
rfemur -64.0569 -23.8853 7.05202
rtibia 74.2808
rfoot -10.9545 10.9916
rtoes 1.11299
lfemur 18.0157 3.73928 -14.6407
ltibia 26.0503
lfoot -27.594 30.8083
ltoes -25.6547
1290
root -3.9599 13.5626 42.1692 6.91595 18.0021 9.82551
lowerback 10.6768 -0.107122 -15.2139
upperback -1.2437 -2.20307 -0.938677
thorax -6.88906 -0.499515 7.90878
lowerneck 3.18962 -11.0201 -11.8738
upperneck 3.85169 -15.3962 10.8655
head 2.39102 -7.7665 4.73934
rclavicle -9.13167e-016 2.85753e-014
rhumerus -30.6958 13.9472 -68.1203
rradius 43.0516
rwrist 9.67709
rhand -2.79499 -45.5377
rfingers 7.12502
rthumb 22.9107 -74.1966
lclavicle -9.13167e-016 2.85753e-014
lhumerus -25.0695 -10.4015 85.4386
lradius 33.2233
lwrist -16.6584
lhand -20.4676 22.2282
lfingers 7.12502
lthumb 5.88834 52.1264
rfemur -64.1061 -23.8474 7.10016
rtibia 74.3003
rfoot -10.8979 11.0691
rtoes 1.92335
lfemur 18.0179 3.76028 -14.6066
ltibia 26.0279
lfoot -27.4904 30.8857
ltoes -25.7338
1291
root -3.96089 13.5627 42.1724 6.92562 17.9945 9.83469
lowerback 10.6702 -0.127666 -15.2454
upperback -1.26814 -2.23578 -0.939216
thorax -6.90362 -0.511777 7.93072
lowerneck 3.24133 -11.0211 -11.8941
upperneck 3.79932 -15.4034 10.9292
head 2.37452 -7.77155 4.76525
rclavicle -1.7462e-014 -1.1281e-014
rhumerus -30.7808 13.9652 -68.2343
rradius 42.964
rwrist 9.60354
rhand -2.89516 -45.6406
rfingers 7.12502
rthumb 22.8146 -74.3113
lclavicle -1.7462e-014 -1.1281e-014
lhumerus -25.089 -10.3322 85.4265
lradius 33.2588
lwrist -16.6756
lhand -20.2936 22.664
lfingers 7.12502
lthumb 6.05634 52.5574
rfemur -64.1305 -23.8621 7.10152
rtibia 74.3198
rfoot -10.8724 11.1149
rtoes 2.05141
lfemur 18.0311 3.76583 -14.6112
ltibia 26.0277
lfoot -27.5422 30.8683
ltoes -25.7093
1292
root -3.96206 13.557 42.1745 6.94911 17.9786 9.89219
lowerback 10.6402 -0.128147 -15.3021
upperback -1.27471 -2.24024 -0.958798
thorax -6.89202 -0.512673 7.94049
lowerneck 3.21003 -11.0702 -11.9141
upperneck 3.83274 -15.47 10.9419
head 2.39972 -7.80378 4.76431
rclavicle -1.57785e-015 -6.37105e-014
rhumerus -30.9184 13.933 -68.3447
rradius 42.8809
rwrist 9.78752
rhand -2.91759 -45.5653
rfingers 7.12502
rthumb 22.7931 -74.2387
lclavicle -1.57785e-015 -6.37105e-014
lhumerus -25.0612 -10.314 85.4292
lradius 33.1883
lwrist -16.6398
lhand -20.4944 22.3494
lfingers 7.12502
lthumb 5.86251 52.2483
rfemur -64.1277 -23.8897 7.04629
rtibia 74.3681
rfoot -10.9925 11.109
rtoes 1.82693
lfemur 18.0315 3.76158 -14.6727
ltibia 26.0271
lfoot -27.5201 30.9067
ltoes -25.7327
1293
root -3.96336 13.5577 42.1784 6.9691 17.9722 9.88656
lowerback 10.5964 -0.150386 -15.2996
upperback -1.27794 -2.26199 -0.964195
thorax -6.86529 -0.525454 7.93475
lowerneck 3.15853 -11.1111 -11.9228
upperneck 3.84641 -15.5226 10.9609
head 2.42032 -7.8283 4.76375
rclavicle -8.43282e-015 -1.43622e-014
rhumerus -30.9917 13.9017 -68.4549
rradius 42.8143
rwrist 9.78747
rhand -2.86531 -45.6604
rfingers 7.12502
rthumb 22.8432 -74.3276
lclavicle -8.43282e-015 -1.43622e-014
lhumerus -25.0675 -10.2961 85.4171
lradius 33.2732
lwrist -16.7034
lhand -20.1812 23.1522
lfingers 7.12502
lthumb 6.16491 53.0425
rfemur -64.1832 -23.9009 7.07662
rtibia 74.3904
rfoot -10.9576 11.152
rtoes 1.83324
lfemur 18.0202 3.75698 -14.667
ltibia 26.0082
lfoot -27.491 30.9235
ltoes -25.718
1294
root -3.96454 13.549 42.1821 6.96694 17.9691 9.90943
lowerback 10.571 -0.173809 -15.342
upperback -1.29069 -2.29559 -0.970639
thorax -6.85568 -0.540363 7.95549
lowerneck 3.22951 -11.1142 -11.9445
upperneck 3.80265 -15.534 11.0081
head 2.40263 -7.83617 4.78575
rclavicle 8.92978e-015 -7.70291e-015
rhumerus -31.0899 13.8552 -68.5644
rradius 42.7224
rwrist 9.98278
rhand -2.90487 -45.5584
rfingers 7.12502
rthumb 22.8053 -74.2303
lclavicle 8.92978e-015 -7.70291e-015
lhumerus -25.1147 -10.3092 85.4163
lradius 33.3078
lwrist -16.691
lhand -20.0651 23.4179
lfingers 7.12502
lthumb 6.27701 53.3049
rfemur -64.1789 -23.9422 7.06768
rtibia 74.4407
rfoot -11.0992 11.118
rtoes 1.56786
lfemur 18.0617 3.78492 -14.6573
ltibia 26.0128
lfoot -27.5114 30.9207
ltoes -25.7206
1295
root -3.96458 13.5557 42.1857 6.97475 17.986 9.8398
lowerback 10.5553 -0.200394 -15.2545
upperback -1.30738 -2.31758 -0.959305
thorax -6.86135 -0.553025 7.92197
lowerneck 3.10147 -11.1938 -11.9447
upperneck 3.94503 -15.6357 10.9537
head 2.47301 -7.88281 4.75032
rclavicle 3.97041e-014 5.2181e-015
rhumerus -31.1995 13.7948 -68.6718
rradius 42.6659
rwrist 10.0648
rhand -3.04737 -45.5538
rfingers 7.12502
rthumb 22.6685 -74.2424
lclavicle 3.97041e-014 5.2181e-015
lhumerus -25.1193 -10.2854 85.423
lradius 33.3151
lwrist -16.7133
lhand -20.0363 23.6896
lfingers 7.12502
lthumb 6.30475 53.5758
rfemur -64.2149 -23.9492 7.14452
rtibia 74.4319
rfoot -10.9957 11.2282
rtoes 1.93959
lfemur 18.0161 3.7784 -14.588
ltibia 26.0542
lfoot -27.5199 30.9208
ltoes -25.6003
1296
root -3.96537 13.5544 42.189 6.95007 18.0074 9.7772
lowerback 10.5601 -0.23913 -15.2012
upperback -1.3287 -2.36413 -0.944125
thorax -6.87685 -0.575171 7.91622
lowerneck 3.11071 -11.2258 -11.9492
upperneck 3.98348 -15.6813 10.9303
head 2.48669 -7.90589 4.74038
rclavicle 1.83286e-014 2.02263e-014
rhumerus -31.3105 13.826 -68.8188
rradius 42.5899
rwrist 10.12
rhand -3.01712 -45.6422
rfingers 7.12502
rthumb 22.6975 -74.3273
lclavicle 1.83286e-014 2.02263e-014
lhumerus -25.1788 -10.2329 85.4088
lradius 33.3324
lwrist -16.7038
lhand -20.0599 23.6734
lfingers 7.12502
lthumb 6.28196 53.5602
rfemur -64.2093 -23.9607 7.21059
rtibia 74.4313
rfoot -10.903 11.2706
rtoes 1.93249
lfemur 18.0023 3.74914 -14.5157
ltibia 26.1036
lfoot -27.5507 30.9585
ltoes -25.6519
1297
root -3.96682 13.5466 42.1888 6.91767 18.0123 9.67862
lowerback 10.615 -0.265148 -15.0971
upperback -1.38138 -2.39941 -0.926811
thorax -6.96011 -0.586853 7.88529
lowerneck 3.04122 -11.2945 -11.9184
upperneck 4.14189 -15.7705 10.8085
head 2.54307 -7.9483 4.68494
rclavicle -3.62782e-015 2.18663e-015
rhumerus -31.4171 13.9079 -68.9705
rradius 42.4421
rwrist 10.2913
rhand -2.93226 -45.5103
rfingers 7.12502
rthumb 22.779 -74.1854
lclavicle -3.62782e-015 2.18663e-015
lhumerus -25.2879 -10.1814 85.4133
lradius 33.3211
lwrist -16.7167
lhand -20.185 23.6096
lfingers 7.12502
lthumb 6.16119 53.5
rfemur -64.1727 -23.9704 7.32609
rtibia 74.4694
rfoot -11.1843 11.1843
rtoes 1.45582
lfemur 17.9837 3.74431 -14.404
ltibia 26.176
lfoot -27.6148 30.958
ltoes -25.6161
1298
root -3.96626 13.5436 42.1918 6.87598 18.0434 9.65219
lowerback 10.5967 -0.300613 -15.058
upperback -1.34302 -2.43343 -0.91725
thorax -6.8991 -0.611589 7.87749
lowerneck 3.15479 -11.3001 -12.0098
upperneck 4 -15.7902 10.9581
head 2.5041 -7.96189 4.75173
rclavicle -2.79541e-016 -4.75344e-014
rhumerus -31.4367 13.863 -69.0696
rradius 42.3862
rwrist 10.4249
rhand -3.07502 -45.5083
rfingers 7.12502
rthumb 22.642 -74.2002
lclavicle -2.79541e-016 -4.75344e-014
lhumerus -25.2527 -10.153 85.408
lradius 33.287
lwrist -16.7295
lhand -20.3857 23.2662
lfingers 7.12502
lthumb 5.96743 53.1622
rfemur -64.1109 -24.0205 7.33648
rtibia 74.4823
rfoot -11.1522 11.223
rtoes 0.995619
lfemur 17.983 3.72712 -14.3581
ltibia 26.28
lfoot -27.6626 30.9993
ltoes -25.7069
1299
root -3.96677 13.5416 42.1932 6.94588 18.0249 9.67905
lowerback 10.5624 -0.333944 -15.0899
upperback -1.39343 -2.48084 -0.919386
thorax -6.92285 -0.628998 7.89933
lowerneck 3.22045 -11.3164 -12.0425
upperneck 4.00105 -15.8204 10.9729
head 2.50111 -7.97921 4.76277
rclavicle 1.72694e-014 1.22998e-014
rhumerus -31.5211 13.8714 -69.1972
rradius 42.2934
rwrist 10.5191
rhand -3.20818 -45.4654
rfingers 7.12502
rthumb 22.5142 -74.1728
lclavicle 1.72694e-014 1.22998e-014
lhumerus -25.2867 -10.1209 85.4048
lradius 33.2664
lwrist -16.6807
lhand -20.18 23.3717
lfingers 7.12502
lthumb 6.16601 53.2619
rfemur -64.219 -24.0454 7.35586
rtibia 74.5261
rfoot -11.2451 11.2269
rtoes 0.888943
lfemur 17.8678 3.7169 -14.4056
ltibia 26.3965
lfoot -27.7355 31.0209
ltoes -25.5954
1300
root -3.96717 13.5408 42.1964 6.81373 18.0507 9.47337
lowerback 10.6613 -0.363553 -14.8841
upperback -1.41176 -2.50975 -0.870271
thorax -6.99634 -0.643661 7.84698
lowerneck 3.28011 -11.3601 -12.0805
upperneck 4.01085 -15.8878 10.9858
head 2.50631 -8.01487 4.77074
rclavicle -2.55221e-014 -3.77691e-015
rhumerus -31.6238 13.8892 -69.3284
rradius 42.2392
rwrist 10.591
rhand -3.0409 -45.4304
rfingers 7.12502
rthumb 22.6747 -74.1183
lclavicle -2.55221e-014 -3.77691e-015
lhumerus -25.3472 -10.1104 85.4113
lradius 33.1721
lwrist -16.7083
lhand -20.4309 22.9676
lfingers 7.12502
lthumb 5.92378 52.8648
rfemur -64.0876 -24.0164 7.54107
rtibia 74.5265
rfoot -11.3178 11.2069
rtoes 1.15942
lfemur 17.9245 3.71771 -14.1646
ltibia 26.4715
lfoot -27.8216 30.998
ltoes -25.646
1301
root -3.97105 13.5394 42.2026 6.87511 17.9437 9.45225
lowerback 10.5176 -0.378448 -14.9658
upperback -1.42171 -2.51422 -0.851824
thorax -6.92059 -0.647765 7.90791
lowerneck 3.35396 -11.3845 -12.1069
upperneck 3.94267 -15.927 11.0359
head 2.48489 -8.03676 4.79321
rclavicle 7.23825e-014 2.70844e-014
rhumerus -31.6603 13.9414 -69.4808
rradius 42.1333
rwrist 10.7976
rhand -3.17671 -45.3491
rfingers 7.12502
rthumb 22.5444 -74.0528
lclavicle 7.23825e-014 2.70844e-014
lhumerus -25.3646 -10.054 85.3867
lradius 33.1347
lwrist -16.7086
lhand -20.3915 22.7628
lfingers 7.12502
lthumb 5.96184 52.6589
rfemur -64.2571 -23.8899 7.62974
rtibia 74.5511
rfoot -11.2526 11.166
rtoes 1.47823
lfemur 17.8551 3.80475 -14.1439
ltibia 26.5094
lfoot -27.8892 30.9676
ltoes -25.5822
